<svg width="100" height="100" viewBox="0 0 100 100" fill="none" xmlns="http://www.w3.org/2000/svg">
<path d="M50 10C27.91 10 10 27.91 10 50C10 72.09 27.91 90 50 90C72.09 90 90 72.09 90 50C90 27.91 72.09 10 50 10ZM50 20C66.57 20 80 33.43 80 50C80 66.57 66.57 80 50 80C33.43 80 20 66.57 20 50C20 33.43 33.43 20 50 20ZM35 40C31.69 40 29 42.69 29 46C29 49.31 31.69 52 35 52C38.31 52 41 49.31 41 46C41 42.69 38.31 40 35 40ZM65 40C61.69 40 59 42.69 59 46C59 49.31 61.69 52 65 52C68.31 52 71 49.31 71 46C71 42.69 68.31 40 65 40ZM35 58C33 58 31.5 59.5 31.5 61.5C31.5 63.5 33 65 35 65H65C67 65 68.5 63.5 68.5 61.5C68.5 59.5 67 58 65 58H35Z" fill="currentColor"/>
</svg>
